<svg width="301" height="288" viewBox="0 0 301 288" fill="none" xmlns="http://www.w3.org/2000/svg">
<g filter="url(#filter0_d)">
<path fill-rule="evenodd" clip-rule="evenodd" d="M279.393 112.621C280.96 111.484 280.157 109.004 278.219 109.002L182.049 108.936L152.394 17.4516C151.797 15.6086 149.19 15.6068 148.59 17.449L118.808 108.892L22.6381 108.825C20.7006 108.824 19.8934 111.302 21.46 112.442L89.0904 161.65L186.136 140.675L95.4814 180.516L69.4425 260.466C68.8426 262.308 70.9505 263.843 72.5187 262.705L150.362 206.231L228.125 262.813C229.692 263.953 231.802 262.422 231.205 260.579L201.55 169.094L279.393 112.621Z" fill="#FF6B00"/>
</g>
<path fill-rule="evenodd" clip-rule="evenodd" d="M279.392 112.623L201.549 169.097L150.36 206.234L72.5175 262.707C70.9493 263.844 68.8415 262.311 69.4415 260.469L96.6491 176.928L186.147 140.722L92.247 163.95L21.459 112.444C19.8923 111.304 20.6996 108.826 22.637 108.827L118.807 108.894L182.049 108.938L278.219 109.004C280.156 109.006 280.96 111.486 279.392 112.623Z" fill="#FF8730"/>
<defs>
<filter id="filter0_d" x="0.632812" y="0.0683594" width="299.589" height="287.137" filterUnits="userSpaceOnUse" color-interpolation-filters="sRGB">
<feFlood flood-opacity="0" result="BackgroundImageFix"/>
<feColorMatrix in="SourceAlpha" type="matrix" values="0 0 0 0 0 0 0 0 0 0 0 0 0 0 0 0 0 0 127 0"/>
<feOffset dy="4"/>
<feGaussianBlur stdDeviation="10"/>
<feColorMatrix type="matrix" values="0 0 0 0 0 0 0 0 0 0 0 0 0 0 0 0 0 0 0.15 0"/>
<feBlend mode="normal" in2="BackgroundImageFix" result="effect1_dropShadow"/>
<feBlend mode="normal" in="SourceGraphic" in2="effect1_dropShadow" result="shape"/>
</filter>
</defs>
</svg>
